<svg xmlns="http://www.w3.org/2000/svg" width="512" height="512" viewBox="0 0 1024 1024">
  <defs>
    <style>
      .cls-1 {
        stroke: #000;
        stroke-width: 1px;
        fill-rule: evenodd;
      }
    </style>
  </defs>
  <path class="cls-1" d="M939,836c45.539-.122,50,6.615,50,53,0,14.365,1.536,31.6-2,43-3.767,12.148-12.983,26.7-22,34l-18,10c-28.142,9.948-70.541,22.1-121-9-25.34-17.463-29-43.295-29-87,0-10.4-1.427-23.775,3-30,6.357-8.938,30.367-11.9,45-12-1.838-10.373-6.72-25.042-5-38l7-27c-2.9-13.7-14.938-28.508-10-51l8-17c-7.273-9.8-14.967-29.371-12-48l4-21q-6-14-12-28c-3.126-12.487,1.815-24.463,0-33l-17-35c-4.383-11.978-1.5-25.723-5-38-2.382-8.357-11.054-17.156-14-27q-1.5-17-3-34c-4.87-11.638-20.336-22.936-27-35-5.877-10.638-4.14-27.544-10-36-19.152-9.186-21.617-24.359-32-43l-27-25-6-14c-16.487-13.777-32.978-10.009-44-34-25.959,1.662-48.323-11.831-61-27l-14,2c-0.177,9.242-3.383,11.548-7,17-28.69,1.617-83.145,9.587-106-3q-0.5-4-1-8l-18,9c-7.741,2.5-29.235.058-34,4-13.158,12.513-19.943,26.872-45,28-4.21,15.3-16.146,31.193-28,39-5.274,3.474-10.61,3.646-14,9-8.024,18.175-9.477,31.086-24,42l-14,8-4,20c-5.6,14.508-14.574,22.054-23,33,1.908,32.3-14.323,38.732-21,60v27c-3.687,12.533-13.242,22.342-17,33q0.5,11,1,22c-2.452,15.339-8.1,28.962-11,41-2.117,8.8,3.051,20.961,1,32-2.235,12.032-9.041,23.133-11,33v60c-1.858,10.318-8.571,20.315-10,28-2.321,12.483,9.177,26.248,6,43l-10,30c20.581-.472,37.942,4.036,50,12,10.059,36.152.817,87.677-14,107-31.472,41.041-110.63,38.22-148,16,7.908,10.28-53.241-38.614-24-123,11.592-6.1,26.167-9.765,44-10-0.962-10.94-7.067-21.381-4-35,2.162-9.6,10.072-17.052,12-25,3.147-12.976-9.97-26.729-6-45,1.732-7.972,9.174-14.145,11-20l-3-36c2.213-11.646,10.179-19.774,13-28,3.267-9.525-7.681-21.165-5-35,2.556-13.191,10.311-21.9,17-31-2.79-19.755-2.6-44.819,5-63l11-16q0.5-15,1-30c3.8-15.793,15.341-26.018,24-37-0.361-30.6,3.237-51.992,18-67l13-8c6.107-9.137,4.866-23.268,10-32,7.955-13.531,29.106-24.769,34-33,5.524-9.29,4.039-20.943,10-29,11.583-15.655,29.34-16.215,42-28,11.255-17.439,17.8-35.53,39-43l24-4c11.747-6.9,19.57-20.777,34-26,12.521-4.532,24.668,3.888,38-1,9.455-3.466,16.208-11.9,29-15,0.333-3.666-1.007-7.334,1-11,8.395-5.32,36.253-3.2,44-8,1.219-31.713,5.025-87.785,5-116,15.96,0.3,8.417,0,19,0,3.783,32.612,7.795,89.683,7,116l35,7c2.659,2.384,3.453,7.687,5,11,26.253-.46,36.882,8.149,53,13l12-1a110.167,110.167,0,0,1,35,12c10.49,5.609,18.472,20.359,28,25l16,3c19.279,9.639,30.751,27.07,40,47,23.169,3.515,34.5,20.15,44,37q2.5,7.5,5,15l14,5c22.5,16.473,15.086,34.752,26,60,2.782,6.436,8.521,8.046,14,12,14.065,10.149,17.462,35.326,16,58,20.212,13.828,23.18,40.36,22,73,18.572,6.928,20.607,42.828,17,66,10.516,8,20.977,26.538,18,47l-3,24c3.209,14.181,9.224,30.786,12,49,2.357,15.463-7.158,28.687-5,40,1.57,8.23,7.28,19.862,9,30,3.147,18.545-10.033,33.24-7,47C933.638,819.431,938.669,824.472,939,836Z"/>
</svg>
