<svg xmlns="http://www.w3.org/2000/svg" width="700" height="700" viewBox="162 162 700 700">
  <defs>
    <style>
      .cls-1 {
        stroke: #000;
        stroke-width: 1px;
        fill-rule: evenodd;
      }
    </style>
  </defs>
  <path class="cls-1" d="M574,286c-52.639-.7-90.528,20.279-133,27,11.076,22.277,7.4,47.676,2,72,31.214,2.322,60.562,19.416,86,30,73.373,30.528,174.774,55.358,206,122,6.78,14.47,14.753,38.989,10,63q-4.5,15.5-9,31c2.134,8.483,7.748,18.978,10,29,9.87,43.923-8.011,90.771-27,114-73.685,90.135-221.553,98.226-341,44-29.126-13.223-82.818-33.755-93-63-5.685-16.33-2.853-84.662,1-104,32.761-25.721,111.362-41.125,140,1,9.918,14.589,5.349,53.966,5,77h1l58-5,82-18c-3.406-15.39-9.445-32.615-5-52,1.885-8.219,8.747-16.795,8-24l-88-38c-62.808-26.3-161.495-53.159-195-107-9.029-14.509-19.689-39.717-15-66,1.69-9.476,10.622-28.314,8-33C226.777,195.2,442.994,139.843,606,190c30.8,9.478,104.777,33.9,119,55,4.189,6.216,5.734,98.542,1,106-4.455,7.018-14.983,10.353-23,14-42.686,19.415-105.612,24.565-127-16Q575,317.5,574,286ZM353,235c-33.542,23.99-79.363,110.215-31,150h1c3.917-7.1,8.516-12.695,13-18q9.5-19,19-38c2.074-3.634,13-20,13-20l27-17c-0.142-1.4-.068-18.538,0-20a34.3,34.3,0,0,0,0-6c-0.089-1.139,1.507-2.888,4-3-0.393,2.433-1.507,16.327,0,18,21.541,23.918,83.046-6.219,73-2,5.979-2.511,12.249-4.838,18.651-7.006,1.778-.6,41.876-27.793,54.349-25.994,1.243,0.179-29.048,17.564-27,17,14.627-4.03,39.539-2.49,51-5,16.486-3.61,18.084-11.848,21-16-4.635-1.043-54.232-10.074-183,19-11.2,2.528-7.158,3.385-27,10,9.664-12.8,35-20,35-20,51.685-18.4,173.746-23.966,187-17,3.682,9.654-7.65,24.494-4,40,2.333,5,3.667,10,6,15-1.581,16.761-2.066,37.546,2,50,4.3,5.434,7.777,5.9,14,4,4.035-1.533,6.3-3.006,8-7q1-20.5,2-41c7.425-2.4,9.306-7.1,14-11l16,7c-0.217,11.046-.275,23.881,2,32-6.9,2.067-16.58,7.016-21,12-1.276,9.444-.549,15.044,5,20,62.291-15.792,52.742-17.287,47-95-11-17.516-36.24-24.859-54-35-47-26.836-185.611-39.923-243-12-34,16.543-50.912,82.706-57,103C336.739,309.318,337.139,279.439,353,235Zm48,69-25,14c-18.283,12.9-33.386,82.661-3,93,8.129-.533,23.284-9.925,28-16C415.187,376.726,430.3,313.156,401,304Zm-84,94c-2.755,9.26-6.5,17.754-9,29-8.975,40.384,39.663,77.7,61,84,8.479,2.5,33.734,18.629,47,8C399.038,490.468,358.677,399,317,398Zm101,10-30,8,7,35c16.351,42.991,49.293,63.642,107,64,2.385-10.763,11.942-22.446,8-39C500.766,437.219,468.908,409.275,418,408Zm100,34,15,24c14.188-3.656,35.952,3.665,46-1C559.51,458.7,536.531,448.323,518,442Zm40,36c-3.12,1.828-13,8-19,10,23.925,0.573,47.148,11.013,64,17a53.051,53.051,0,0,1,22-13C606.337,486.986,587.117,475.907,558,478Zm-38,23c-9,49.795,11.208,83.083,46,100,10.658,5.182,53.956,14.045,63,1,7.852-14.367-6.248-33.865-11-43C598.189,520.918,568.316,500.792,520,501Zm96,3c4.574,39.894,46.953,113.832,86,119,0.676-.54,7.991.54,14-32,7.235-39.179-33.423-72.969-54-82C645.026,501.551,630.338,503.116,616,504ZM436,537v3c19.671,8.79,42.246,22.446,65,26v-3c-7.21-4.944-11.713-18.132-14-24Zm215,71c-5.469,3.333-14.511,2.8-19,5-31.769,15.556-44.355,66.364-22,100,39.068-1.151,67.013-45.645,52-86C659.983,621.579,657.866,611.627,651,608ZM626,773c0.5-29.955-20.789-46.947-55-40-20.136,4.089-33.439,16.99-49,22-14.813,8.718-35.57,28.182-38,30-0.6.451,1.278,0.28,5.035,0.207C594.109,783.166,610.243,769.183,622,768c5.1-.513,4.7,4.313,3,5-71.758,29-175.914,18.052-193,16-12.527-1.5-59.453-20.625-53-19,8.4,2.114,70.487,11.738,78,12,15.808,0.551,57.406-27.017,57-27-38.627,1.583-75.374,3.417-114,5v-2q2-9.5,4-19c1.455-25.077-2.671-49.105-5-75l-12-5c-18.058,8.358-7.138,24.7-15,43l-21,8-8-6c0.5-12.212,1.715-21.266-4-29,8.066-.257,19.1-5.126,23-10l3-9-8-7-43,16q0.5,40,1,80c11.3,20.108,49.4,36.276,73,46,87.56,36.081,274,68.643,281-46h-3c-1.841,4.226-1.385,4.4-7,5,1.531-13.8,20.8-15.111,35-61-0.231,27.232-21.624,70.635-24,93-0.125,5.476,7.125-2.476,19-17,16.3-19.933,34.7-50.489,28-87-2.874-15.652-3.146-38.041-17-42-4.511,13.6-39.049,66.118-50,74-8.711,6.27-18.056,10.063-25,18-0.264,14.218,6.791,29.544,5,44C628,772,628,773,626,773Z"/>
</svg>
